<?xml version="1.0" encoding="UTF-8" standalone="no"?>
<svg width="16px" height="16px" viewBox="0 0 16 16" version="1.1" xmlns="http://www.w3.org/2000/svg" xmlns:xlink="http://www.w3.org/1999/xlink">
    <!-- Generator: Sketch 47.1 (45422) - http://www.bohemiancoding.com/sketch -->
    <title>Page 1</title>
    <desc>Created with Sketch.</desc>
    <defs></defs>
    <g id="HOME" stroke="none" stroke-width="1" fill="none" fill-rule="evenodd">
        <g transform="translate(-199.000000, -11.000000)" id="Page-1" fill="#FFFFFF">
            <g transform="translate(199.000000, 10.000000)">
                <polygon id="Fill-1" points="0.202 16.293 3.632 16.293 3.632 5.976 0.202 5.976"></polygon>
                <g id="Group-6" transform="translate(0.000000, 0.293000)">
                    <path d="M1.917,4.2734 L1.895,4.2734 C0.744,4.2734 0,3.4804 0,2.4904 C0,1.4784 0.768,0.7074 1.939,0.7074 C3.113,0.7074 3.836,1.4784 3.857,2.4904 C3.857,3.4804 3.113,4.2734 1.917,4.2734" id="Fill-2"></path>
                    <path d="M16,16 L12.57,16 L12.57,10.48 C12.57,9.094 12.074,8.146 10.832,8.146 C9.886,8.146 9.32,8.787 9.072,9.402 C8.981,9.623 8.959,9.928 8.959,10.238 L8.959,16 L5.53,16 C5.53,16 5.574,6.65 5.53,5.684 L8.959,5.684 L8.959,7.145 C9.416,6.439 10.23,5.441 12.051,5.441 C14.307,5.441 16,6.914 16,10.084 L16,16 Z" id="Fill-4"></path>
                </g>
            </g>
        </g>
    </g>
</svg>